HIERARCHY
ROOT pelvis
{
  OFFSET 0 100 0
  CHANNELS 6 Xposition Yposition Zposition Zrotation Xrotation Yrotation
  JOINT pelvis_right_femur
  {
    OFFSET -10.78128 -3.44521 -0.5502486
    CHANNELS 3 Zrotation Xrotation Yrotation
    JOINT right_femur_tibia
    {
      OFFSET -0.8047443 -44.0398 -0.1307829
      CHANNELS 3 Zrotation Xrotation Yrotation
      JOINT right_tibia_foot
      {
        OFFSET 3.006224 -47.83518 -5
        CHANNELS 3 Zrotation Xrotation Yrotation
        End Site
        {
          OFFSET 0 -5 15
        }
      }
    }
  }
  JOINT pelvis_left_femur
  {
    OFFSET 10.78128 -3.44521 -0.5502486
    CHANNELS 3 Zrotation Xrotation Yrotation
    JOINT left_femur_tibia
    {
      OFFSET 0.8047443 -44.0398 -0.1307829
      CHANNELS 3 Zrotation Xrotation Yrotation
      JOINT left_tibia_foot
      {
        OFFSET -4.370144 -48.10324 -4.275266
        CHANNELS 3 Zrotation Xrotation Yrotation
        End Site
        {
          OFFSET 0 -5 15
        }
      }
    }
  }
  JOINT pelvis_spine1
  {
    OFFSET 0 6.468898 -3.129235
    CHANNELS 3 Zrotation Xrotation Yrotation
    JOINT spine1
    {
      OFFSET 0 23.15396 4.99043
      CHANNELS 3 Zrotation Xrotation Yrotation
      JOINT spine2
      {
        OFFSET 0 20.79997 -5.064912
        CHANNELS 3 Zrotation Xrotation Yrotation
        JOINT neck
        {
          OFFSET 0 14.38658 9.616178
          CHANNELS 3 Zrotation Xrotation Yrotation
          End Site
          {
            OFFSET 0 20 0
          }
        }
      }
      JOINT right_manubrium
      {
        OFFSET -5.722621 16.35077 3.967754
        CHANNELS 3 Zrotation Xrotation Yrotation
        JOINT right_clavicle
        {
          OFFSET -13.16364 1.694482 -4.693211
          CHANNELS 3 Zrotation Xrotation Yrotation
          JOINT right_humerus
          {
            OFFSET -28.5034 -0.3100689 -2.792744
            CHANNELS 3 Zrotation Xrotation Yrotation
            JOINT right_radius
            {
              OFFSET -25.15693 0.02248979 -1.271978
              CHANNELS 3 Zrotation Xrotation Yrotation
              End Site
              {
                OFFSET -15 0 0
              }
            }
          }
        }
      }
      JOINT left_manubrium
      {
        OFFSET 5.722621 16.35077 3.967754
        CHANNELS 3 Zrotation Xrotation Yrotation
        JOINT left_clavicle
        {
          OFFSET 13.16364 1.694482 -4.693211
          CHANNELS 3 Zrotation Xrotation Yrotation
          JOINT left_humerus
          {
            OFFSET 29.39168 -1.063119 -2.237045
            CHANNELS 3 Zrotation Xrotation Yrotation
            JOINT left_radius
            {
              OFFSET 24.59957 -0.9528479 0.9047498
              CHANNELS 3 Zrotation Xrotation Yrotation
              End Site
              {
                OFFSET 15 -0 -0
              }
            }
          }
        }
      }
    }
  }
}
MOTION
Frames: 15
Frame Time: 0.0416666666667
0 103.5113 0 1.330096 -0.7912805 -0.05051408 3.716628 -16.56779 11.04024 -0 39.588 -0 -4.255644 -18.25205 -3.042511 -7.460101 9.842352 -23.09672 -0 5.415123 -0 13.59619 -13.37888 30.04223 -4.24501 -3.773743 5.135021 2.615384 10.31436 -7.420112 1.369723 21.48755 6.622717 2.984415 -23.73057 9.590168 7.397555 -19.86834 11.91196 84.34807 38.50991 -17.03084 -0 0 17.41248 -5.515224 7.720491 3.224578 6.130849 -18.77574 -1.407296 -91.92068 20.65246 20.00789 0 0 -13.92001 14.84604 13.05323 -4.516819
0.3738092 104.1222 1.688825 1.171772 -0.7170346 -0.08990356 3.792607 -17.72432 10.4196 -0 38.83712 -0 -4.590048 -17.10864 -2.847848 -7.312572 9.941782 -22.61327 -0 5.203761 -0 13.41284 -13.79029 29.3752 -4.112559 -3.53792 4.974401 2.60192 10.37338 -7.440401 1.361912 21.49122 6.651567 3.016495 -23.87959 9.55941 7.202352 -19.81375 11.93001 84.62375 38.17222 -17.19914 -0 0 16.98675 -6.067487 7.862514 3.566676 6.207459 -19.11592 -1.569269 -91.52771 20.49579 19.56105 0 0 -14.51411 15.11524 13.12693 -4.648904
0.7775792 104.5182 3.660007 0.7179971 0.6296132 -0.1252747 4.580367 -22.18457 9.457315 -0 33.28921 -0 -4.516672 -15.04877 -2.149839 -7.230393 10.26781 -21.85641 -0 4.835624 -0 12.70678 -15.94952 27.89965 -3.774917 -3.027852 5.146616 2.776581 10.06765 -7.51192 1.509013 21.15888 6.709896 3.103025 -24.96439 9.785202 6.684643 -19.80804 11.72547 85.1099 37.63103 -18.03786 -0 0 16.49534 -6.187087 7.895032 3.810971 6.680004 -19.77188 -1.445579 -91.4912 21.23238 19.56714 0 0 -16.76689 14.79915 13.35498 -3.532186
1.182345 104.7098 5.936675 0.3454414 1.741212 -0.1053216 5.246632 -25.85599 8.635812 -0 28.45653 -0 -4.54776 -13.08708 -1.639927 -7.12639 10.79901 -21.09206 -0 4.963975 -0 11.94496 -17.7423 26.57769 -3.498152 -2.650004 5.2018 2.92711 9.804223 -7.592803 1.628567 20.91944 6.757905 3.171518 -25.77298 9.962827 6.237448 -19.67023 11.52074 85.63682 37.20836 -18.88333 -0 0 15.80173 -6.354241 7.999519 3.996982 7.051047 -20.35614 -1.349823 -91.35286 21.89094 19.37273 0 0 -18.7482 14.44678 13.55277 -2.565067
1.549575 104.7117 8.653835 -0.06589587 2.622808 -0.003174445 5.843057 -29.48998 7.472362 -0 23.58458 -0 -4.912728 -10.44849 -1.219108 -6.887619 11.75551 -19.93589 -0 5.684526 -0 10.81156 -19.47165 24.86372 -3.155336 -2.258255 4.999556 3.03695 9.583885 -7.691293 1.731789 20.81466 6.788921 3.209471 -26.34103 10.06286 5.642179 -19.30852 11.29076 86.46712 36.47406 -19.91198 -0 0 14.51484 -6.960266 8.234123 4.350813 7.366823 -21.09419 -1.408531 -90.83251 22.48998 18.59078 0 0 -20.92699 14.05508 13.82922 -1.652456
1.845534 104.5782 11.91632 -0.4685931 3.240777 0.1926268 6.374853 -32.51599 6.236596 -0 19.13759 -0 -5.484816 -7.625391 -0.9448735 -6.577557 13.03855 -18.55493 -0 7.230396 -0 9.411562 -20.81562 22.9993 -2.770505 -1.964518 4.607788 3.11119 9.417539 -7.811442 1.801243 20.82236 6.796598 3.19897 -26.60308 10.08326 4.998478 -18.76379 11.0478 87.47763 35.60467 -21.03422 -0 0 12.85084 -7.76533 8.530676 4.730764 7.5732 -21.84394 -1.567509 -90.07991 22.96431 17.43715 0 0 -22.99104 13.59978 14.06402 -0.8528822
2.037437 104.3882 15.83838 -0.8626668 3.442738 0.4824725 6.823708 -34.5607 4.912683 -0 15.48579 -0 -6.308926 -4.733324 -0.8426362 -6.184657 14.58991 -16.90108 -0 9.911155 -0 7.727964 -21.48697 20.96179 -2.298915 -1.79506 4.002688 3.121843 9.352886 -7.948867 1.817733 20.9732 6.765687 3.116301 -26.44815 9.981759 4.278003 -18.0409 10.81176 88.67998 34.4801 -22.18723 -0 0 10.83157 -8.834606 8.860098 5.158176 7.619422 -22.5849 -1.888076 -89.06621 23.16121 15.88337 0 0 -24.77468 13.13099 14.20821 -0.2821383
2.110325 104.2714 20.49479 -1.233353 3.181264 0.8404532 7.238562 -35.17114 3.68093 -0 13.06125 -0 -7.322026 -2.155911 -0.9093656 -5.739019 16.10465 -15.06515 -0 14.034 -0 5.896764 -21.13374 18.88481 -1.711807 -1.795877 3.280433 3.05854 9.443111 -8.099893 1.756276 21.22664 6.698591 2.96728 -25.86873 9.743158 3.534588 -17.24556 10.62094 89.96409 33.17548 -23.25105 -0 0 8.741791 -10.04701 9.163127 5.570137 7.456936 -23.23447 -2.372268 -87.96135 22.92711 14.22947 0 0 -25.98955 12.71668 14.15188 -0.03557749
2.076439 104.3963 25.88424 -1.566611 2.448872 1.204306 7.661779 -34.01164 2.700477 -0 12.14953 -0 -8.45865 -0.2792162 -1.101704 -5.259409 17.07699 -13.16164 -0 19.88489 -0 4.111001 -19.47022 16.90496 -0.9815824 -1.969437 2.609387 2.908951 9.751812 -8.247757 1.599523 21.51404 6.607035 2.791331 -24.93967 9.360186 2.818376 -16.55013 10.52489 91.19055 31.77413 -24.0893 -0 0 6.974696 -11.29783 9.392579 5.916244 7.062914 -23.73721 -3.023024 -87.00932 22.13892 12.91839 0 0 -26.37466 12.44797 13.824 -0.1678746
1.980175 104.9435 31.88461 -1.842707 1.351213 1.472991 8.089359 -31.0392 2.087403 -0 12.68447 -0 -9.634405 0.5900632 -1.318848 -4.759146 16.82168 -11.36249 -0 27.57918 -0 2.611478 -16.44927 15.16376 -0.12144 -2.258738 2.245057 2.672646 10.33054 -8.362171 1.350923 21.72662 6.517661 2.675315 -23.87189 8.847265 2.202645 -16.18672 10.57589 92.18127 30.45051 -24.58633 -0 0 6.006968 -12.46938 9.541852 6.144528 6.466366 -24.08192 -3.810801 -86.51508 20.8032 12.52533 0 0 -25.78499 12.39899 13.23302 -0.6168379
1.884242 106.0438 38.24391 -2.022429 0.052824 1.52197 8.41856 -26.59566 1.809587 -0 14.1164 -0 -10.78574 0.4314515 -1.431635 -4.25007 14.71794 -9.829813 -0 36.91589 -0 1.60257 -12.41648 13.75863 0.7757592 -2.54043 2.438166 2.356911 11.19509 -8.396872 1.052666 21.77241 6.449855 2.727042 -22.93364 8.228994 1.750737 -16.35188 10.8086 92.78822 29.38858 -24.68907 -0 0 6.172246 -13.52237 9.678867 6.23831 5.757581 -24.34049 -4.688931 -86.685 19.08347 13.46345 0 0 -24.30997 12.596 12.53217 -1.205311
1.839474 107.7146 44.63079 -2.033044 -1.311925 1.245722 8.497245 -21.29677 1.711917 -0 15.56091 -0 -11.87697 -0.4172912 -1.358754 -3.759798 10.53979 -8.642265 -0 47.18307 -0 1.211859 -8.11317 12.77658 1.513993 -2.671159 3.295322 1.974263 12.30276 -8.299134 0.7860031 21.63881 6.384925 3.013652 -22.30555 7.533337 1.494335 -17.09541 11.22001 92.94893 28.71226 -24.40004 -0 0 7.45017 -14.52056 9.944436 6.236786 5.063137 -24.64127 -5.601342 -87.50454 17.23107 15.69836 0 0 -22.27066 13.01203 11.99252 -1.742802
1.856372 109.8309 50.73042 -1.789853 -2.719973 0.615065 8.232386 -15.71618 1.62157 -0 16.21335 -0 -12.86963 -1.452837 -1.149994 -3.304287 4.644256 -7.75261 -0 56.9843 -0 1.47896 -4.437766 12.35892 1.84701 -2.56837 4.669736 1.539419 13.54178 -8.025116 0.6416089 21.41843 6.248219 3.485449 -21.9533 6.793507 1.410589 -18.28316 11.75974 92.692 28.41513 -23.69321 -0 0 9.451267 -15.58443 10.49978 6.255273 4.493847 -25.06343 -6.480413 -88.73442 15.47234 18.68821 0 0 -20.04817 13.56954 11.87125 -2.154545
1.904002 112.1417 56.32987 -1.282505 -4.206212 -0.2849671 7.681361 -10.12853 1.452726 -0 15.72236 -0 -13.65433 -2.407218 -0.9810664 -2.804163 -2.180772 -7.027717 -0 64.15521 -0 2.329372 -2.080767 12.68337 1.626463 -2.256072 6.182523 1.076032 14.72614 -7.554774 0.6701489 21.24911 5.939793 3.943075 -21.67643 6.068181 1.420096 -19.70063 12.33823 92.05608 28.35321 -22.40178 -0 0 11.70127 -16.79268 11.45193 6.508833 4.103063 -25.50165 -7.219388 -90.06014 13.98461 21.70363 0 0 -17.84802 14.09949 12.2663 -2.445884
1.944311 114.3094 61.36033 -0.6726763 -5.688399 -1.283764 7.064343 -4.552625 1.228288 -0 14.22456 -0 -14.01866 -3.536602 -1.034269 -2.035543 -9.057667 -6.330981 -0 66.05725 -0 3.525077 -1.251195 13.81198 0.9593968 -1.829902 7.367237 0.6321035 15.60133 -6.904912 0.8507275 21.21051 5.410951 4.095983 -21.31847 5.473386 1.410167 -21.20484 12.84566 91.00331 28.30292 -20.21508 -0 0 13.986 -18.1388 12.80838 7.310268 3.881473 -25.62735 -7.651966 -91.2972 12.95634 24.2894 0 0 -15.5989 14.29042 13.09629 -2.49785
